<?xml version="1.0" encoding="utf-8"?>
<!-- Svg Vector Icons : http://www.onlinewebfonts.com/icon -->
<!DOCTYPE svg PUBLIC "-//W3C//DTD SVG 1.1//EN" "http://www.w3.org/Graphics/SVG/1.1/DTD/svg11.dtd">
<svg version="1.1" xmlns="http://www.w3.org/2000/svg" xmlns:xlink="http://www.w3.org/1999/xlink" x="0px" y="0px" viewBox="0 0 256 256" enable-background="new 0 0 256 256" xml:space="preserve">
<metadata> Svg Vector Icons : http://www.onlinewebfonts.com/icon </metadata>
<g><g><g><path fill="#000000" d="M53.8,62.2c-1.1,0.6-1.8,2-17.4,37.2c-7.8,17.7-14.6,32.8-15,33.4c-1.5,2.3-11.4,27.5-11.4,28.9c0,0.7,0.5,2,1.2,2.8c1.3,1.6,2,1.7,12.7,0.9c11.5-0.8,29.3,1.5,45.8,6.1c14.4,4,26.6,9.1,38,16c9.3,5.7,12.4,6.7,20.3,6.7s11-1,20.3-6.7c26.1-15.9,66.3-25.3,91.9-21.5c2.2,0.4,2.8,0.2,4.1-1.2c0.9-0.9,1.6-2.2,1.6-3c0-0.8-2.2-6.9-4.9-13.7c-2.7-6.8-4.9-12.7-4.9-13.1c0-0.7-28.4-63.2-31.7-69.7c-1-2-2-3.1-3.1-3.3c-0.9-0.2-5.3-0.2-10,0c-27.3,1.4-45.2,6.4-58.4,16.3c-2.7,2-5,3.7-5.2,3.7c-0.2,0-2.2-1.5-4.4-3.3c-9.8-7.8-24.2-13-42.8-15.4C73.1,62.4,55,61.6,53.8,62.2z M81,73.2c9.6,1.3,19.8,4.1,26.5,7.3c6.2,2.9,8.9,4.7,13,8.6l2.6,2.5v31.2V154l-3.8-2.5c-16.8-10.9-41.5-17.1-75.4-19c-5.8-0.3-10.8-0.7-10.9-0.7c-0.2-0.2-0.3,0.1,15.2-35.2l11.1-25.1l7.4,0.4C70.9,72.1,77.3,72.7,81,73.2z M210.6,101.7c7.6,16.4,13.6,29.9,13.6,29.9c-0.1,0.1-5.3,0.4-11.7,0.8c-35.2,2-60.1,8.4-76.9,19.8l-2.6,1.8v-31.3V91.4l3.7-3.4c3.8-3.4,10.1-7.1,16.5-9.6c9.3-3.7,27.7-6.7,39.9-6.5l3.9,0.1L210.6,101.7z M54.9,143c31.1,2.8,53.2,10.3,67.8,23.2c2.5,2.2,4.1,3.1,5.3,3.1c1.2,0,2.8-0.9,5.3-3.1c17.2-15.2,43-22.6,84.8-24.3l9.9-0.4l2.6,6.6c1.4,3.6,2.5,6.8,2.5,7c0,0.2-1,0.4-2.4,0.2c-3.2-0.3-18.6,0.9-25.9,2.1c-22,3.5-46.6,12.2-61.3,21.5c-7.7,4.9-9.2,5.5-15.5,5.5s-7.8-0.6-15.5-5.5c-14.3-9.2-38.1-17.6-59.7-21.3c-8.2-1.4-23.7-2.7-27.3-2.3c-1.4,0.1-2.5,0-2.5-0.2c0-0.2,1.2-3.4,2.5-7l2.6-6.6l9.9,0.4C43.3,142.1,51,142.6,54.9,143z"/></g></g></g>
</svg>